<svg xmlns="http://www.w3.org/2000/svg" viewBox="0 0 24 24" role="img" aria-label="itch.io" fill="#fff"><path d="M3.13 1.34C2.13 1.93.14 4.22 0 4.82v1c0 1.27 1.19 2.38 2.27 2.38.13 0 .24-.03.35-.07.14.06.3.09.46.09 1.04 0 1.94-.9 2.06-2.1.11 1.2.94 2.1 1.98 2.1s1.86-.9 1.98-2.1c.12 1.2 1.02 2.1 2.06 2.1h.02c1.04 0 1.94-.9 2.06-2.1.12 1.2 1.02 2.1 2.06 2.1h.02c1.04 0 1.94-.9 2.06-2.1.12 1.2 1.02 2.1 2.06 2.1.16 0 .32-.03.46-.09.11.04.22.07.35.07C22.81 8.2 24 7.09 24 5.82v-1c-.14-.6-2.13-2.89-3.13-3.48C17.8 1.24 15.05 1.2 12 1.2s-6.13.06-8.87.14zm5.54 6.9c-.6.9-1.62 1.48-2.77 1.48-.5 0-.98-.11-1.4-.31-.06.86-.09 1.9-.09 3.19v.02c0 2.7.28 5.9.42 7.14.16 1.42.4 2.5 1.06 2.86.7.38 2.5.58 4.66.63v-3.2c0-.94.44-1.7 1.06-2.2h-.02c.62-.5 1.44-.78 2.4-.78s1.78.28 2.4.78c.62.5 1.06 1.26 1.06 2.2v3.2c2.16-.05 3.96-.25 4.66-.63.66-.36.9-1.44 1.06-2.86.14-1.24.42-4.44.42-7.14v-.02c0-1.29-.03-2.33-.09-3.19-.42.2-.9.31-1.4.31-1.15 0-2.17-.58-2.77-1.48-.6.9-1.62 1.48-2.77 1.48h-.02c-1.15 0-2.17-.58-2.77-1.48-.6.9-1.62 1.48-2.77 1.48h-.02c-1.15 0-2.17-.58-2.77-1.48zM9.4 11.5c.7 0 1.32.35 1.7.9.38-.55 1-.9 1.7-.9h.4c1.16 0 2.1.94 2.1 2.1 0 1.6-1.34 2.9-3 2.9h-2.4c-1.66 0-3-1.3-3-2.9 0-1.16.94-2.1 2.1-2.1h.4z"/></svg>
